<?xml version="1.0" encoding="UTF-8"?>
<svg width="269px" height="274px" viewBox="0 0 269 274" version="1.1" xmlns="http://www.w3.org/2000/svg" xmlns:xlink="http://www.w3.org/1999/xlink">
    <!-- Generator: Sketch 49.1 (51147) - http://www.bohemiancoding.com/sketch -->
    <title>equation-Postman</title>
    <desc>Created with Sketch.</desc>
    <defs>
        <path d="M5.97804664,25.7286756 L11.8911678,20.0735904 C12.4228219,19.5671832 12.7033491,18.8940171 12.7327493,18.2110418 C13.5143054,18.1485072 14.2787114,17.8297036 14.8875412,17.2521787 L17.1942342,15.0561124 C17.9500651,14.336352 18.3114429,13.3554179 18.2808176,12.3842932 C19.226525,12.4836127 20.2077577,12.1868802 20.9464384,11.4855123 L22.7521025,9.76642524 C24.0861379,8.49734174 24.1375883,6.36871472 22.8684784,5.039549 L19.4678519,1.4738535 C18.197517,0.143461614 16.0684504,0.0919625729 14.73564,1.36104608 L12.9287509,3.08135928 C12.1900701,3.78272717 11.8470674,4.7477211 11.9009679,5.69677485 C10.9307603,5.61952629 9.9323775,5.9334252 9.1765466,6.65318561 L6.8698536,8.84802568 C6.28429903,9.40593196 5.93517131,10.1220139 5.82124542,10.8675238 C5.10583984,10.8405481 4.38063418,11.0857816 3.82447984,11.615486 L0.22295174,15.0438508 L5.97804664,25.7286756 Z" id="path-1"></path>
        <path d="M12.8319751,0.419349332 C6.08217246,0.755319266 0.535329177,6.19827741 0.0588004588,12.9421994 C-0.148226157,15.8739663 0.590454607,18.6254864 1.99676558,20.9245508 L24.8088936,21.19676 C26.147829,19.1331198 26.9416352,16.6832369 26.9783855,14.043298 C27.0825113,6.54283052 21.0444392,0.402182986 13.5241055,0.402182986 C13.2950287,0.402182986 13.0635019,0.408313824 12.8319751,0.419349332" id="path-3"></path>
        <path d="M12.8319751,0.419349332 C6.08217246,0.755319266 0.535329177,6.19827741 0.0588004588,12.9421994 C-0.148226157,15.8739663 0.590454607,18.6254864 1.99676558,20.9245508 L24.8088936,21.19676 C26.147829,19.1331198 26.9416352,16.6832369 26.9783855,14.043298 C27.0825113,6.54283052 21.0444392,0.402182986 13.5241055,0.402182986 C13.2950287,0.402182986 13.0635019,0.408313824 12.8319751,0.419349332" id="path-5"></path>
        <path d="M12.8319751,0.419349332 C6.08217246,0.755319266 0.535329177,6.19827741 0.0588004588,12.9421994 C-0.148226157,15.8739663 0.590454607,18.6254864 1.99676558,20.9245508 L24.8088936,21.19676 C26.147829,19.1331198 26.9416352,16.6832369 26.9783855,14.043298 C27.0825113,6.54283052 21.0444392,0.402182986 13.5241055,0.402182986 C13.2950287,0.402182986 13.0635019,0.408313824 12.8319751,0.419349332" id="path-7"></path>
        <path d="M12.8319751,0.419349332 C6.08217246,0.755319266 0.535329177,6.19827741 0.0588004588,12.9421994 C-0.148226157,15.8739663 0.590454607,18.6254864 1.99676558,20.9245508 L24.8088936,21.19676 C26.147829,19.1331198 26.9416352,16.6832369 26.9783855,14.043298 C27.0825113,6.54283052 21.0444392,0.402182986 13.5241055,0.402182986 C13.2950287,0.402182986 13.0635019,0.408313824 12.8319751,0.419349332" id="path-9"></path>
        <path d="M12.8319751,0.419349332 C6.08217246,0.755319266 0.535329177,6.19827741 0.0588004588,12.9421994 C-0.148226157,15.8739663 0.590454607,18.6254864 1.99676558,20.9245508 L24.8088936,21.19676 C26.147829,19.1331198 26.9416352,16.6832369 26.9783855,14.043298 C27.0825113,6.54283052 21.0444392,0.402182986 13.5241055,0.402182986 C13.2950287,0.402182986 13.0635019,0.408313824 12.8319751,0.419349332" id="path-11"></path>
        <path d="M12.8319751,0.419349332 C6.08217246,0.755319266 0.535329177,6.19827741 0.0588004588,12.9421994 C-0.148226157,15.8739663 0.590454607,18.6254864 1.99676558,20.9245508 L24.8088936,21.19676 C26.147829,19.1331198 26.9416352,16.6832369 26.9783855,14.043298 C27.0825113,6.54283052 21.0444392,0.402182986 13.5241055,0.402182986 C13.2950287,0.402182986 13.0635019,0.408313824 12.8319751,0.419349332" id="path-13"></path>
        <path d="M12.8319751,0.419349332 C6.08217246,0.755319266 0.535329177,6.19827741 0.0588004588,12.9421994 C-0.148226157,15.8739663 0.590454607,18.6254864 1.99676558,20.9245508 L24.8088936,21.19676 C26.147829,19.1331198 26.9416352,16.6832369 26.9783855,14.043298 C27.0825113,6.54283052 21.0444392,0.402182986 13.5241055,0.402182986 C13.2950287,0.402182986 13.0635019,0.408313824 12.8319751,0.419349332" id="path-15"></path>
        <path d="M12.8319751,0.419349332 C6.08217246,0.755319266 0.535329177,6.19827741 0.0588004588,12.9421994 C-0.148226157,15.8739663 0.590454607,18.6254864 1.99676558,20.9245508 L24.8088936,21.19676 C26.147829,19.1331198 26.9416352,16.6832369 26.9783855,14.043298 C27.0825113,6.54283052 21.0444392,0.402182986 13.5241055,0.402182986 C13.2950287,0.402182986 13.0635019,0.408313824 12.8319751,0.419349332" id="path-17"></path>
        <path d="M12.8319751,0.419349332 C6.08217246,0.755319266 0.535329177,6.19827741 0.0588004588,12.9421994 C-0.148226157,15.8739663 0.590454607,18.6254864 1.99676558,20.9245508 L24.8088936,21.19676 C26.147829,19.1331198 26.9416352,16.6832369 26.9783855,14.043298 C27.0825113,6.54283052 21.0444392,0.402182986 13.5241055,0.402182986 C13.2950287,0.402182986 13.0635019,0.408313824 12.8319751,0.419349332" id="path-19"></path>
        <path d="M12.8319751,0.419349332 C6.08217246,0.755319266 0.535329177,6.19827741 0.0588004588,12.9421994 C-0.148226157,15.8739663 0.590454607,18.6254864 1.99676558,20.9245508 L24.8088936,21.19676 C26.147829,19.1331198 26.9416352,16.6832369 26.9783855,14.043298 C27.0825113,6.54283052 21.0444392,0.402182986 13.5241055,0.402182986 C13.2950287,0.402182986 13.0635019,0.408313824 12.8319751,0.419349332" id="path-21"></path>
        <path d="M12.8319751,0.419349332 C6.08217246,0.755319266 0.535329177,6.19827741 0.0588004588,12.9421994 C-0.148226157,15.8739663 0.590454607,18.6254864 1.99676558,20.9245508 L24.8088936,21.19676 C26.147829,19.1331198 26.9416352,16.6832369 26.9783855,14.043298 C27.0825113,6.54283052 21.0444392,0.402182986 13.5241055,0.402182986 C13.2950287,0.402182986 13.0635019,0.408313824 12.8319751,0.419349332" id="path-23"></path>
        <path d="M12.8319751,0.419349332 C6.08217246,0.755319266 0.535329177,6.19827741 0.0588004588,12.9421994 C-0.148226157,15.8739663 0.590454607,18.6254864 1.99676558,20.9245508 L24.8088936,21.19676 C26.147829,19.1331198 26.9416352,16.6832369 26.9783855,14.043298 C27.0825113,6.54283052 21.0444392,0.402182986 13.5241055,0.402182986 C13.2950287,0.402182986 13.0635019,0.408313824 12.8319751,0.419349332" id="path-25"></path>
        <path d="M28.6250845,0.646190346 L32.1126867,52.4456423 C32.2253876,54.3363927 30.7921264,55.9659695 28.9031617,56.0983956 L23.9884233,56.4368179 C22.3028102,56.55453 20.7850233,55.4325866 20.4003703,53.7882958 L16.3578388,33.4890906 L12.0972555,53.3861128 C11.6672772,55.0205943 10.1188651,56.1057527 8.43815197,55.9488032 L3.5332137,55.4926688 C1.649149,55.3161007 0.26121317,53.6534174 0.42658946,51.7675715 L5.26047718,1.3070947 L28.6250845,0.646190346 Z" id="path-27"></path>
        <path d="M12.8319751,0.419349332 C6.08217246,0.755319266 0.535329177,6.19827741 0.0588004588,12.9421994 C-0.148226157,15.8739663 0.590454607,18.6254864 1.99676558,20.9245508 L24.8088936,21.19676 C26.147829,19.1331198 26.9416352,16.6832369 26.9783855,14.043298 C27.0825113,6.54283052 21.0444392,0.402182986 13.5241055,0.402182986 C13.2950287,0.402182986 13.0635019,0.408313824 12.8319751,0.419349332" id="path-29"></path>
        <path d="M0.466728642,5.6305618 C0.512053995,10.1747391 4.228733,13.8176831 8.76861842,13.7723149 C10.0156781,13.7588271 11.1965874,13.4682253 12.2500956,12.9593658 C11.8617676,7.02839291 7.62690951,2.13107936 1.98941552,0.774937948 C1.01430791,2.14334103 0.448353498,3.82196453 0.466728642,5.6305618" id="path-31"></path>
        <path d="M3.71470289,23.6126852 L19.2269989,23.1639078 C20.8685117,23.1160873 22.1731469,21.7329702 22.1265966,20.0899055 L21.6427178,3.33187243 C21.5949424,1.68880779 20.2131316,0.382939257 18.5703938,0.429533627 L3.05809777,0.878310983 C1.41658496,0.926131521 0.111949779,2.30924862 0.159725151,3.95353942 L0.643603927,20.7103464 C0.69015429,22.3546372 2.07319008,23.6605057 3.71470289,23.6126852" id="path-33"></path>
    </defs>
    <g id="Comps" stroke="none" stroke-width="1" fill="none" fill-rule="evenodd">
        <g id="Update-3.0---Product:-Why-Postman" transform="translate(-833.000000, -836.000000)">
            <g id="Group" transform="translate(339.000000, 828.000000)">
                <g id="Postman" transform="translate(493.000000, 8.000000)">
                    <g id="Brand/Postman-Mark" transform="translate(0.956044, 0.498168)">
                        <g id="Mark">
                            <path d="M149.778128,1.09779277 C76.9933053,-8.25254501 10.4365049,43.1743128 1.09447115,115.950832 C-8.23925856,188.727351 43.1792952,255.284151 115.955814,264.617881 C188.724029,273.968219 255.297437,222.557969 264.631167,149.773146 C273.981505,77.004931 222.546343,10.4232185 149.778128,1.09779277" id="Fill-1" fill="#F26B3A"></path>
                            <path d="M51.71999,225.833909 C49.5858543,225.833909 47.6759274,224.563392 46.8621325,222.587033 C46.0400335,220.618978 46.4967552,218.37689 47.9997846,216.865556 L60.9374633,203.99431 C61.6183938,203.321683 62.4737089,202.92309 63.3539361,202.823442 C63.5117126,202.134207 63.8438738,201.478189 64.3587237,200.930123 L105.5218,156.536778 C105.970218,156.046841 106.543196,155.673159 107.165998,155.44895 C107.14939,155.424038 107.132782,155.390822 107.124478,155.36591 C106.294075,153.381247 106.725885,151.122551 108.22061,149.586305 L113.1449,144.504239 L91.3800373,149.196016 C91.0977003,149.24584 90.5413303,149.312272 90.2506892,149.312272 C88.1995938,149.312272 86.306275,148.099884 85.4426559,146.214869 C84.5707327,144.32155 84.8696778,142.154198 86.2232347,140.551521 L99.6840673,124.724039 C100.157397,124.167669 100.771895,123.752468 101.444522,123.511651 C101.62721,122.7892 102.000892,122.116574 102.540654,121.576812 C140.274166,83.8349957 155.329372,72.3339141 166.971622,72.3339141 C167.627641,72.3339141 168.275355,72.3754343 168.898157,72.4501705 C168.01793,69.3610714 167.718985,66.0560674 168.092666,62.6763272 C169.529264,49.6805203 180.457367,39.8900689 193.519606,39.8900689 C194.457962,39.8900689 195.404621,39.9398931 196.359585,40.0478455 C201.10949,40.5709994 205.593666,42.397886 209.322175,45.3292086 C210.277139,46.0848753 210.850117,47.2142234 210.899941,48.4349158 C210.899941,48.4598279 210.899941,48.48474 210.899941,48.509652 C211.472919,48.7006447 212.004377,49.0245019 212.461099,49.4729195 C216.745978,53.6996708 219.220579,59.562316 219.270403,65.5578256 L219.245491,66.7453019 L219.137539,68.2068112 L218.946546,69.527152 L218.705729,70.7395404 L218.373568,72.034969 L217.974975,73.2556614 L217.485037,74.5344821 L216.895451,75.8465188 L216.305865,76.9426508 L212.19537,75.7136543 L215.724583,77.8976142 C215.691366,77.9640465 215.317685,78.5370245 215.267861,78.6034568 C215.234645,78.6449769 214.603538,79.5252041 214.562018,79.5750283 C213.598751,80.8123287 212.643787,81.8171164 211.614088,82.7388637 L210.717252,83.4862264 C209.845329,84.1754609 209.039838,84.7401349 208.201131,85.2383767 C207.553417,85.6286661 206.772838,85.861179 205.992259,85.8943951 C205.983955,85.9608273 205.975651,86.0189555 205.959043,86.0770838 C205.68501,87.4057286 204.771567,88.5184686 203.517658,89.0499265 C200.337215,90.4034834 196.974083,91.0927179 193.519606,91.0927179 C192.597859,91.0927179 191.659504,91.0511977 190.721148,90.9432453 C188.91087,90.7356446 187.158719,90.3536592 185.489609,89.7972892 C185.622474,92.2054579 185.14084,95.0454362 183.563074,98.2840079 C183.604594,98.2923119 183.637811,98.3089199 183.671027,98.325528 C185.481305,99.147627 186.494397,101.082466 186.021067,103.009001 C185.18236,106.463477 184.219093,108.904862 184.219093,108.904862 C184.086228,109.444624 177.492828,132.272403 142.233917,161.668669 C141.810411,162.017438 141.337082,162.283167 140.822232,162.440944 C140.614631,163.271347 140.141301,164.027013 139.468675,164.583383 C136.720041,166.875296 133.813631,169.416329 130.757748,172.081922 C119.015849,182.345704 104.517013,195.017653 86.4142274,204.774889 L89.4285903,217.662743 C89.7939676,219.240509 89.4368943,220.859795 88.4321067,222.122007 C87.4439271,223.367612 85.8993775,224.114974 84.2966997,224.114974 C83.7486337,224.114974 83.0178791,223.932286 82.3286446,223.641645 C81.59789,224.920465 80.2443331,225.717652 78.7413037,225.725956 C78.7413037,225.725956 51.71999,225.833909 51.71999,225.833909" id="Fill-3" fill="#FFFFFF"></path>
                            <path d="M193.528741,35.7330715 C178.348974,35.7330715 165.635504,47.1178966 163.95809,62.2063191 C163.733881,64.2989347 163.725577,66.3666382 163.924874,68.3928215 C151.410701,70.0785396 135.7493,82.4930644 99.6018574,118.640507 C99.0371834,119.213485 98.5555496,119.852895 98.1818683,120.550434 C97.5673701,120.965635 97.0110001,121.463877 96.5210623,122.036855 L83.0602297,137.87264 C80.6769731,140.671099 80.1372111,144.632121 81.6734567,147.970341 C83.2180062,151.300257 86.5894424,153.467609 90.2515196,153.467609 C90.8411058,153.467609 91.6881168,153.36796 92.2610949,153.2434 L102.840429,150.968096 C102.624524,151.831715 102.53318,152.72855 102.558092,153.617081 C102.53318,153.650297 102.499964,153.683514 102.475052,153.708426 L61.3119751,198.10177 C60.9299897,198.525276 60.5978285,198.957085 60.3154915,199.430415 C59.4767845,199.820704 58.6962056,200.360466 58.0069712,201.049701 L45.0775964,213.912643 C42.3704827,216.611453 41.5649918,220.647212 43.018197,224.16812 C44.4797063,227.697333 47.8926626,229.989245 51.7125164,229.989245 L78.7587421,229.881293 C80.5690207,229.872989 82.2796508,229.283403 83.6664239,228.253703 C83.8740246,228.270311 84.0899294,228.270311 84.2975301,228.270311 C87.1956366,228.270311 89.8861423,226.966578 91.6881168,224.699578 C93.4817873,222.440882 94.1295016,219.534471 93.4734833,216.719405 L91.1649629,206.887434 C108.370913,197.163415 122.188819,185.081051 133.490604,175.215863 C136.521575,172.575182 139.403073,170.050757 142.135099,167.767148 C142.907374,167.119434 143.546784,166.347159 144.036722,165.48354 C144.335667,165.300852 144.618004,165.084947 144.892037,164.860738 C178.764175,136.618732 187.043293,113.774345 188.205858,110.079052 C188.529715,109.232041 189.335206,106.956737 190.057656,103.992198 C190.66385,101.484381 190.06596,98.9184357 188.587843,96.9835968 C188.820356,96.2943623 189.011348,95.6134318 189.169125,94.9241973 C189.526198,94.9823255 189.891576,95.0238457 190.248649,95.0653658 C191.361389,95.1816222 192.457521,95.2480545 193.537045,95.2480545 C197.539587,95.2480545 201.450785,94.4425636 205.146079,92.8814059 C206.781973,92.1838674 208.127225,90.9880871 209.015757,89.5099698 C209.298094,89.3854093 209.572127,89.2442408 209.84616,89.0947683 C209.9292,89.0449441 210.261361,88.8456474 210.336097,88.8041272 C211.349189,88.189629 212.287545,87.5336106 213.200988,86.819464 C213.657709,86.4457827 213.948351,86.2049658 214.238992,85.9558449 C215.584244,84.7517606 216.713592,83.5642843 217.710076,82.2771596 L218.432527,81.3138922 C218.457439,81.272372 218.681648,80.9568189 218.70656,80.9236027 L219.213106,80.159632 L219.528659,79.6447821 L219.927252,78.9804597 L220.342454,78.2081849 C220.359062,78.1749688 220.54175,77.8178955 220.558358,77.7929834 C220.807479,77.2947416 221.01508,76.8629321 221.206073,76.4145145 C221.480106,75.7501921 221.621274,75.4014228 221.745835,75.0526535 C221.770747,74.9945253 221.878699,74.6872762 221.903611,74.629148 L222.227468,73.6326644 C222.244076,73.5828402 222.368637,73.1759428 222.385245,73.1095105 L222.634366,72.1545471 C222.64267,72.1213309 222.734014,71.7476496 222.742318,71.7144335 L222.966527,70.6099975 C222.974831,70.5684773 223.041263,70.2280121 223.041263,70.194796 C223.124304,69.6965542 223.19904,69.1900084 223.257168,68.6834625 C223.306992,68.2018288 223.348512,67.703587 223.381729,67.2053452 C223.414945,66.4911986 223.423249,66.059389 223.423249,65.6441875 C223.365121,58.4279855 220.433798,51.4941204 215.376644,46.5200065 C215.119219,46.2708856 214.85349,46.0300687 214.579457,45.8224679 C214.056303,44.3526546 213.134556,43.0489219 211.880647,42.0690464 C207.537639,38.65609 202.331013,36.5302584 196.817137,35.9157601 C195.712701,35.7995037 194.616569,35.7330715 193.528741,35.7330715 M63.8613123,206.937258 L78.725526,221.577263 L51.7208204,221.685215 L51.7125164,221.685215 C50.7326409,221.685215 50.2427031,220.489435 50.9402416,219.8002 L63.8613123,206.937258 M130.78349,155.369232 L136.803912,161.397957 C134.030366,163.714782 131.107347,166.272423 128.026552,168.962929 C116.018925,179.459223 101.063367,192.513158 82.4706435,202.162441 C81.9807058,202.411562 81.7232808,202.976236 81.8478413,203.507694 L85.3853581,218.60442 C85.5597427,219.368391 84.9535485,219.966281 84.2975301,219.966281 C84.0318012,219.966281 83.7660722,219.866633 83.5335594,219.642424 L67.4071331,203.74851 L108.561906,159.36347 L130.78349,155.369232 M119.431881,143.992711 L127.221061,151.790195 L112.232287,154.447484 C112.165855,154.464092 112.091119,154.472396 112.016382,154.472396 C111.028203,154.472396 110.455225,153.235096 111.185979,152.487733 L119.431881,143.992711 M102.848733,127.417867 L115.24665,139.807479 L90.5089446,145.130363 C90.4176002,145.146971 90.3345599,145.163579 90.2515196,145.163579 C89.3131642,145.163579 88.7235781,144.025927 89.3795965,143.253652 L102.848733,127.417867 M181.986139,102.024143 C181.222168,105.163066 180.350245,107.388546 180.350245,107.388546 C180.350245,107.388546 174.238479,129.585219 139.569154,158.474939 C139.552546,158.450027 139.544242,158.408507 139.511026,158.391899 L133.772941,152.703638 C133.772941,152.703638 179.993172,105.279323 181.986139,102.024143 M178.539967,83.7884931 C183.323088,88.5633103 182.368124,95.9788091 173.524332,104.822601 L130.085952,148.917 L122.105779,141.011564 L178.539967,83.7884931 M166.972453,76.4809467 C170.020032,76.4809467 172.552761,77.6518149 174.786545,79.885599 C174.819761,79.9022071 174.844673,79.9188151 174.869585,79.9354232 L118.236101,137.06715 L105.472807,124.511456 C139.029392,90.954871 156.235342,76.4809467 166.972453,76.4809467 M208.027577,73.2672871 C208.575643,73.2672871 209.123709,73.0596863 209.447566,72.677701 C213.566365,67.9444039 210.510482,62.0817587 210.385922,61.8409418 C210.111889,61.3260919 209.472478,61.0188428 208.808156,61.0188428 C208.592251,61.0188428 208.376346,61.052059 208.160442,61.1184912 C207.288518,61.3925242 206.865013,62.1564949 207.222086,62.8208173 C207.246998,62.8706415 209.713295,67.6620668 206.607588,71.2327997 C206.084434,71.8389939 206.300339,72.6444848 207.089222,73.0430783 C207.371559,73.1925508 207.70372,73.2672871 208.027577,73.2672871 M209.547215,52.4324758 C213.084731,55.9201684 215.077699,60.6700736 215.119219,65.5943634 L215.119219,65.6774037 C215.119219,65.9763487 215.110915,66.2752938 215.094307,66.5742389 C215.094307,66.6323671 215.094307,66.6904953 215.086003,66.7403195 C215.069395,67.0807847 215.044482,67.42125 215.002962,67.7700192 C214.969746,68.1187885 214.919922,68.4592537 214.85349,68.808023 C214.836882,68.9076713 214.820274,69.0156237 214.803666,69.1152721 C214.753841,69.356089 214.704017,69.5969058 214.654193,69.8294187 C214.629281,69.9456751 214.604369,70.0619315 214.571153,70.1698839 C214.513025,70.4023967 214.454896,70.6266055 214.388464,70.8508144 C214.363552,70.9587667 214.322032,71.0750232 214.288816,71.1912796 C214.222383,71.4154884 214.147647,71.6313932 214.072911,71.863906 C214.031391,71.9635544 213.998175,72.0715068 213.956655,72.1711551 C213.873614,72.411972 213.773966,72.6527889 213.674318,72.8936057 C213.641101,72.960038 213.607885,73.0430783 213.582973,73.1261186 C213.450109,73.4250637 213.30894,73.7323128 213.159468,74.0229538 C213.101339,74.1392102 213.043211,74.2471626 212.985083,74.346811 C212.893739,74.5378037 212.79409,74.7121883 212.694442,74.894877 C212.611402,75.0443495 212.520057,75.193822 212.428713,75.3432946 C212.353977,75.467855 212.27924,75.5924155 212.1962,75.7086719 C212.088248,75.8830565 211.980295,76.0491371 211.864039,76.2152177 C211.805911,76.3065621 211.739479,76.3979064 211.673046,76.4892507 C211.540182,76.6802434 211.415621,76.854628 211.274453,77.0373167 C211.241237,77.0788369 211.208021,77.120357 211.174804,77.1618772 C210.477266,78.0587124 209.696687,78.8808114 208.85798,79.6281741 C208.824764,79.6613902 208.791548,79.6863023 208.758332,79.7112144 C208.567339,79.885599 208.359738,80.0599836 208.152138,80.2177602 C208.118921,80.2509763 208.077401,80.2758884 208.052489,80.3091045 C207.413079,80.8073463 206.757061,81.264068 206.067826,81.6792695 C206.001394,81.7124856 205.943266,81.7540057 205.885137,81.7955259 C205.827009,81.828742 205.768881,81.8536541 205.710753,81.8868702 L192.615297,68.0440522 L209.547215,52.4324758 M193.528741,44.0371015 C194.30932,44.0371015 195.098202,44.0869257 195.903693,44.17827 C199.922844,44.6183836 203.643049,46.1546291 206.748756,48.596014 L186.545052,67.2219532 C186.304235,67.437858 186.163066,67.7451071 186.154762,68.0689643 C186.138154,68.3928215 186.262714,68.7083746 186.478619,68.9408875 L201.890899,85.2333943 C199.308346,86.3378303 196.476671,86.9440245 193.537045,86.9440245 C192.756466,86.9440245 191.967583,86.8942003 191.170396,86.81116 C179.420194,85.4991233 170.916867,74.8782689 172.2206,63.1280665 C173.432988,52.1667469 182.758414,44.0371015 193.528741,44.0371015" id="Fill-5" fill="#F26B3A"></path>
                        </g>
                    </g>
                    <g id="Illustration/Spaceman---Point-Up" transform="translate(219.783883, 184.271062)">
                        <g id="Spaceman-Left-1-Copy" transform="translate(24.963370, 44.615385) scale(-1, 1) translate(-24.963370, -44.615385) ">
                            <ellipse id="Oval-2" fill="#F4F4F4" cx="19.1208791" cy="84.4505495" rx="19.1208791" ry="4.78021978"></ellipse>
                            <g id="Group" transform="translate(1.062271, 0.000000)">
                                <g id="arm" transform="translate(23.926136, 21.743224)">
                                    <mask id="mask-2" fill="white">
                                        <use xlink:href="#path-1"></use>
                                    </mask>
                                    <use id="Shape" fill="#E8E0CB" xlink:href="#path-1"></use>
                                    <polygon id="Rectangle-path" fill="#BCB199" mask="url(#mask-2)" points="3.78540047 9.51645953 4.52919467 8.79484339 14.2802221 18.8455577 13.5364279 19.5671738"></polygon>
                                    <polygon id="Rectangle-path" fill="#BCB199" mask="url(#mask-2)" points="9.77266029 4.20744903 10.5164545 3.4858329 20.2674819 13.5365472 19.5236877 14.2581633"></polygon>
                                </g>
                                <polygon id="Rectangle-path" fill="#BCB199" points="5.89128954 2.6657027 13.4287856 15.0135969 12.3728327 15.6581798 4.83533665 3.31028554"></polygon>
                                <path d="M3.69370557,5.31192719 C5.06517436,5.97426616 6.70536873,5.38197046 7.35660457,3.98970693 C8.00905089,2.5974434 7.42560168,0.932379774 6.05534336,0.271269641 C4.68387457,-0.391069321 3.0436802,0.201226374 2.39123388,1.59348991 C1.73999804,2.98452461 2.32223678,4.64958823 3.69370557,5.31192719" id="Shape" fill="#F99D78"></path>
                                <path d="M6.32274824,31.6322664 C4.91521226,29.3319759 4.1777565,26.5816818 4.38478312,23.6486889 C4.86008683,16.905993 10.4081551,11.464261 17.1579578,11.1270649 C24.9955689,10.7359175 31.410944,17.0224789 31.3043682,24.7510136 C31.2676179,27.3885002 30.4725867,29.8396093 29.1336512,31.9032494" id="Shape" fill="#E0DACE"></path>
                                <g transform="translate(4.325983, 10.707716)" id="Clipped">
                                    <g>
                                        <mask id="mask-4" fill="white">
                                            <use xlink:href="#path-3"></use>
                                        </mask>
                                        <g id="SVGID_137_"></g>
                                        <rect id="Rectangle-path" fill="#BCB199" mask="url(#mask-4)" transform="translate(-5.506408, 26.898822) rotate(180.710502) translate(5.506408, -26.898822) " x="-6.08398652" y="20.8245278" width="1.15515731" height="12.1485881"></rect>
                                    </g>
                                    <g>
                                        <mask id="mask-6" fill="white">
                                            <use xlink:href="#path-5"></use>
                                        </mask>
                                        <g id="SVGID_137_"></g>
                                        <rect id="Rectangle-path" fill="#BCB199" mask="url(#mask-6)" transform="translate(-13.378723, 26.604908) rotate(180.653209) translate(13.378723, -26.604908) " x="-13.9562952" y="20.5312997" width="1.15514356" height="12.1472174"></rect>
                                    </g>
                                    <g>
                                        <mask id="mask-8" fill="white">
                                            <use xlink:href="#path-7"></use>
                                        </mask>
                                        <g id="SVGID_137_"></g>
                                        <rect id="Rectangle-path" fill="#BCB199" mask="url(#mask-8)" transform="translate(12.709681, 50.770540) rotate(180.676126) translate(-12.709681, -50.770540) " x="-3.1971971" y="50.193033" width="31.8137569" height="1.15501483"></rect>
                                    </g>
                                    <g>
                                        <mask id="mask-10" fill="white">
                                            <use xlink:href="#path-9"></use>
                                        </mask>
                                        <g id="SVGID_137_"></g>
                                        <rect id="Rectangle-path" fill="#BCB199" mask="url(#mask-10)" transform="translate(13.304826, 56.409096) rotate(180.676126) translate(-13.304826, -56.409096) " x="-2.60143987" y="55.8315886" width="31.8125319" height="1.15501483"></rect>
                                    </g>
                                    <g>
                                        <mask id="mask-12" fill="white">
                                            <use xlink:href="#path-11"></use>
                                        </mask>
                                        <g id="SVGID_137_"></g>
                                        <rect id="Rectangle-path" fill="#BCB199" mask="url(#mask-12)" transform="translate(13.275782, 61.897921) rotate(180.676126) translate(-13.275782, -61.897921) " x="-2.63048362" y="61.320414" width="31.8125319" height="1.15501483"></rect>
                                    </g>
                                    <g>
                                        <mask id="mask-14" fill="white">
                                            <use xlink:href="#path-13"></use>
                                        </mask>
                                        <g id="SVGID_137_"></g>
                                        <rect id="Rectangle-path" fill="#BCB199" mask="url(#mask-14)" transform="translate(13.059106, 67.189740) rotate(180.676126) translate(-13.059106, -67.189740) " x="-2.84777243" y="66.6122322" width="31.8137569" height="1.15501483"></rect>
                                    </g>
                                </g>
                                <path d="M6.32274824,31.6322664 C4.91521226,29.3319759 4.1777565,26.5816818 4.38478312,23.6486889 C4.86008683,16.905993 10.4081551,11.464261 17.1579578,11.1270649 C24.9955689,10.7359175 31.410944,17.0224789 31.3043682,24.7510136 C31.2676179,27.3885002 30.4725867,29.8396093 29.1336512,31.9032494" id="Shape" fill="#E8E0CB"></path>
                                <g transform="translate(4.325983, 10.707716)" id="Clipped">
                                    <g>
                                        <mask id="mask-16" fill="white">
                                            <use xlink:href="#path-15"></use>
                                        </mask>
                                        <g id="SVGID_139_"></g>
                                        <rect id="Rectangle-path" fill="#BCB199" mask="url(#mask-16)" transform="translate(-5.506408, 26.898822) rotate(180.710502) translate(5.506408, -26.898822) " x="-6.08398652" y="20.8245278" width="1.15515731" height="12.1485881"></rect>
                                    </g>
                                    <g>
                                        <mask id="mask-18" fill="white">
                                            <use xlink:href="#path-17"></use>
                                        </mask>
                                        <g id="SVGID_139_"></g>
                                        <rect id="Rectangle-path" fill="#BCB199" mask="url(#mask-18)" transform="translate(-13.378723, 26.604908) rotate(180.653209) translate(13.378723, -26.604908) " x="-13.9562952" y="20.5312997" width="1.15514356" height="12.1472174"></rect>
                                    </g>
                                    <g>
                                        <mask id="mask-20" fill="white">
                                            <use xlink:href="#path-19"></use>
                                        </mask>
                                        <g id="SVGID_139_"></g>
                                        <rect id="Rectangle-path" fill="#BCB199" mask="url(#mask-20)" transform="translate(12.709681, 50.770540) rotate(180.676126) translate(-12.709681, -50.770540) " x="-3.1971971" y="50.193033" width="31.8137569" height="1.15501483"></rect>
                                    </g>
                                    <g>
                                        <mask id="mask-22" fill="white">
                                            <use xlink:href="#path-21"></use>
                                        </mask>
                                        <g id="SVGID_139_"></g>
                                        <rect id="Rectangle-path" fill="#BCB199" mask="url(#mask-22)" transform="translate(13.304826, 56.409096) rotate(180.676126) translate(-13.304826, -56.409096) " x="-2.60143987" y="55.8315886" width="31.8125319" height="1.15501483"></rect>
                                    </g>
                                    <g>
                                        <mask id="mask-24" fill="white">
                                            <use xlink:href="#path-23"></use>
                                        </mask>
                                        <g id="SVGID_139_"></g>
                                        <rect id="Rectangle-path" fill="#BCB199" mask="url(#mask-24)" transform="translate(13.275782, 61.897921) rotate(180.676126) translate(-13.275782, -61.897921) " x="-2.63048362" y="61.320414" width="31.8125319" height="1.15501483"></rect>
                                    </g>
                                    <g>
                                        <mask id="mask-26" fill="white">
                                            <use xlink:href="#path-25"></use>
                                        </mask>
                                        <g id="SVGID_139_"></g>
                                        <rect id="Rectangle-path" fill="#BCB199" mask="url(#mask-26)" transform="translate(13.059106, 67.189740) rotate(180.676126) translate(-13.059106, -67.189740) " x="-2.84777243" y="66.6122322" width="31.8137569" height="1.15501483"></rect>
                                    </g>
                                </g>
                                <g transform="translate(1.062271, 30.326398)" id="pants">
                                    <g>
                                        <mask id="mask-28" fill="white">
                                            <use xlink:href="#path-27"></use>
                                        </mask>
                                        <use id="Shape" fill="#E8E0CB" xlink:href="#path-27"></use>
                                        <polygon id="Rectangle-path" fill="#BCB199" mask="url(#mask-28)" points="43.2873791 28.345842 -7.44639174 28.5639972 -7.45042521 27.625979 43.2833456 27.4078237"></polygon>
                                        <polygon id="Rectangle-path" fill="#BCB199" mask="url(#mask-28)" points="42.9167101 34.8710174 -7.81706076 35.0891726 -7.82108897 34.1523805 42.9126819 33.9342253"></polygon>
                                        <polygon id="Rectangle-path" fill="#BCB199" mask="url(#mask-28)" points="42.8843602 41.2942915 -7.84941061 41.5073733 -7.85334514 40.5705812 42.8804257 40.3574994"></polygon>
                                    </g>
                                </g>
                                <g id="Clipped" transform="translate(4.325983, 10.707716)">
                                    <mask id="mask-30" fill="white">
                                        <use xlink:href="#path-29"></use>
                                    </mask>
                                    <g id="SVGID_143_"></g>
                                    <path d="M15.1680684,5.73233371 C15.2709692,10.2740586 19.0317485,13.8728607 23.5691839,13.7698626 C28.1066193,13.6668645 31.7020224,9.90375602 31.5991216,5.36203108 C31.4974458,0.82030615 27.7354414,-2.77849587 23.198006,-2.67549779 C18.6605706,-2.57372587 15.0651675,1.19060878 15.1680684,5.73233371" id="Shape" fill="#A6B4B9" mask="url(#mask-30)"></path>
                                </g>
                                <g id="Clipped" transform="translate(19.026097, 10.707716)">
                                    <mask id="mask-32" fill="white">
                                        <use xlink:href="#path-31"></use>
                                    </mask>
                                    <g id="SVGID_145_"></g>
                                    <path d="M0.327030636,8.7542816 C0.136644356,8.54149575 -0.0505680319,8.3217008 -0.234056651,8.09511123 C-3.68302369,3.83599164 -4.51028058,-1.21091529 -2.08178665,-3.1774709 C-1.94900783,-3.28499307 -1.8092454,-3.38108065 -1.66309622,-3.46596647 C-1.53750162,-3.60115393 -1.40227288,-3.7277303 -1.25731591,-3.84511414 C1.62652064,-6.18039893 7.26862505,-3.9930593 11.344677,1.04044566 C15.4207289,6.07395062 16.3872105,12.047535 13.5033739,14.3828198 C10.6195374,16.7181046 4.97743298,14.530765 0.901381029,9.49725999 C0.702499154,9.25166133 0.51102034,9.00382458 0.327030636,8.7542816 Z M0.327030636,8.7542816 C3.71526413,12.5411518 8.1087323,14.1080983 10.4080278,12.2461655 C12.8365218,10.2796099 12.0092649,5.23270295 8.56029785,0.973583369 C5.29990438,-3.05266726 0.863789422,-4.93362278 -1.66309622,-3.46596647 C-3.91421957,-1.04290336 -3.07027652,4.14655546 0.327030636,8.7542816 Z" id="Combined-Shape" fill-opacity="0.22" fill="#3D545E" mask="url(#mask-32)"></path>
                                    <g id="Group-2" mask="url(#mask-32)" fill="#CDDCE6" opacity="0.3">
                                        <g transform="translate(6.373626, 5.311355) scale(-1, 1) translate(-6.373626, -5.311355) translate(3.186813, 2.124542)" id="Oval-2">
                                            <path d="M4.51923285,4.72502754 C3.57074731,5.5209014 2.29491817,5.56194936 1.6695887,4.81671073 C1.04425924,4.07147209 1.306229,2.82215356 2.25471453,2.0262797 C3.20320007,1.23040583 4.47902921,1.18935787 5.10435868,1.93459651 C5.72968814,2.67983514 5.46771839,3.92915367 4.51923285,4.72502754 Z"></path>
                                        </g>
                                    </g>
                                </g>
                                <g id="backpack" transform="translate(0.000000, 32.930403)">
                                    <path d="M31.1279668,19.4375844 C31.1279668,19.4375844 25.2515959,21.7795646 21.5177668,17.3016003 C17.7839377,12.8260885 22.0138957,20.2149746 22.0138957,20.2149746 C22.0138957,20.2149746 25.2466959,23.443474 31.2590428,21.3847386" id="Shape" fill="#ED8370"></path>
                                    <mask id="mask-34" fill="white">
                                        <use xlink:href="#path-33"></use>
                                    </mask>
                                    <use id="Shape" fill="#ED8370" xlink:href="#path-33"></use>
                                    <path d="M0.626453793,20.1389523 L12.2003441,19.8042085 C14.0072332,19.7514833 15.4441694,18.2298092 15.391494,16.4199858 C15.3388186,14.6113885 13.8173567,13.1755462 12.0104676,13.2270453 L0.436577312,13.5605629 L0.626453793,20.1389523 L0.626453793,20.1389523 Z" id="Shape" fill="#3D545E" mask="url(#mask-34)"></path>
                                    <path d="M11.3318123,11.1045491 C11.3489625,11.7102759 11.8548914,12.1884813 12.4612711,12.1700888 C13.0664259,12.1529224 13.5441796,11.6465152 13.5270295,11.0395622 C13.5086543,10.4338354 13.0039504,9.95563001 12.3975706,9.97279636 C11.7911909,9.99241504 11.3146622,10.4975961 11.3318123,11.1045491" id="Shape" fill="#D6CEB2" mask="url(#mask-34)"></path>
                                    <path d="M7.59063313,11.2124518 C7.60778327,11.8194048 8.11371221,12.296384 8.72009195,12.2792177 C9.32524667,12.2608252 9.80300039,11.7556441 9.78585026,11.1486911 C9.76747512,10.5429643 9.26277118,10.0635328 8.65639145,10.0819253 C8.05001172,10.1003178 7.57225799,10.6054989 7.59063313,11.2124518" id="Shape" fill="#D6CEB2" mask="url(#mask-34)"></path>
                                    <path d="M13.0370256,18.4676858 L13.0370256,18.4676858 C13.4241286,18.4566503 13.731606,18.1317158 13.720581,17.7430207 L13.6470804,15.2011752 C13.6360553,14.8149324 13.3102028,14.5071643 12.9230997,14.5169736 C12.5359967,14.526783 12.2285193,14.8541697 12.2395444,15.2416387 L12.313045,17.7834842 C12.3240701,18.1709532 12.6499226,18.4787213 13.0370256,18.4676858" id="Shape" fill="#9EAFB2" mask="url(#mask-34)"></path>
                                    <path d="M9.99777691,18.5559698 L9.99777691,18.5559698 C10.3848799,18.5437082 10.6923573,18.2187737 10.6813322,17.8313048 L10.6078317,15.2894592 C10.5968066,14.9019903 10.270954,14.5942222 9.88385103,14.6040315 C9.49674801,14.6162932 9.18927061,14.9412276 9.20029569,15.3299228 L9.27379627,17.8705421 C9.28482135,18.2592373 9.61067389,18.5670053 9.99777691,18.5559698" id="Shape" fill="#9EAFB2" mask="url(#mask-34)"></path>
                                    <path d="M6.95975321,18.6442539 L6.95975321,18.6442539 C7.34685623,18.6332184 7.65433363,18.308284 7.64330854,17.9195888 L7.56980797,15.3777433 C7.55878288,14.9915005 7.23293034,14.6837324 6.84582732,14.6935418 C6.4587243,14.7045773 6.1512469,15.0295117 6.16227199,15.4182068 L6.23577256,17.9600524 C6.24679765,18.3462952 6.57265019,18.6540632 6.95975321,18.6442539" id="Shape" fill="#9EAFB2" mask="url(#mask-34)"></path>
                                    <path d="M3.9205045,18.7313118 L3.9205045,18.7313118 C4.30760752,18.7202763 4.61508492,18.3953419 4.60405983,18.0066467 L4.53055926,15.4660274 C4.51953417,15.0785584 4.19368163,14.7707903 3.80657861,14.7805997 C3.41947559,14.790409 3.11199819,15.1177958 3.12302327,15.5052647 L3.19652385,18.0471103 C3.20754893,18.4358054 3.53462648,18.7435735 3.9205045,18.7313118" id="Shape" fill="#9EAFB2" mask="url(#mask-34)"></path>
                                    <path d="M2.33779215,12.0413412 L5.82661937,11.9407954 C6.21862243,11.9273076 6.52977485,11.5986946 6.51874977,11.2050948 C6.50772468,10.8139474 6.17819711,10.5025008 5.78496904,10.5135363 L2.29614182,10.614082 C1.90413876,10.6251175 1.59298633,10.9549566 1.60401142,11.3485565 C1.61748653,11.7409301 1.9470141,12.0523767 2.33779215,12.0413412" id="Shape" fill="#7D9199" mask="url(#mask-34)"></path>
                                    <polygon id="Rectangle-path" fill="#3D545E" mask="url(#mask-34)" points="14.227806 8.38492305 -0.615820031 8.8140755 -0.842363944 0.97832134 14.0012621 0.549168886"></polygon>
                                </g>
                            </g>
                        </g>
                    </g>
                </g>
            </g>
        </g>
    </g>
</svg>